<?xml version="1.0" encoding="utf-8"?>
<!-- Generator: Adobe Illustrator 16.0.0, SVG Export Plug-In . SVG Version: 6.00 Build 0)  -->
<!DOCTYPE svg PUBLIC "-//W3C//DTD SVG 1.1//EN" "http://www.w3.org/Graphics/SVG/1.1/DTD/svg11.dtd">
<svg version="1.1" id="Layer_1" xmlns="http://www.w3.org/2000/svg" xmlns:xlink="http://www.w3.org/1999/xlink" x="0px" y="0px"
	 width="609px" height="182.176px" viewBox="0 0 609 182.176" enable-background="new 0 0 609 182.176" xml:space="preserve">
<path fill="#DEF1FC" d="M0,0.128c0,0,74.338-3.427,128,41.791c74,62.355,115.898-7.935,173.481,36.274
	c30.375,23.32,81.823,103.354,132.88,75.435c31.698-17.333,56.109,6.021,83.132,16c22.463,8.295,75.792,12.549,91.667,12.549
	L0,181.884V0.128z"/>
<path fill="#6BB5E4" d="M0,70.32c0,0,71.046-44.68,114.186,10.576c33.27,42.614,85.707,31.408,103.219,24.077
	c19.384-8.114,50.651-11.705,83.661,10.794s23.434,50.026,133.776,66.333L0,181.884V70.32z"/>
</svg>
